<svg width="24" height="24" viewBox="0 0 24 24" fill="none" xmlns="http://www.w3.org/2000/svg">
<path d="M6.88662 13.4028L7.67741 13.7789C8.18156 14.0193 8.43295 14.1394 8.58467 14.3579C8.73639 14.5763 8.76107 14.8538 8.80961 15.4094L8.88637 16.2826C9.10551 18.7686 9.2148 20.0112 9.91757 20.1782C10.6206 20.3438 11.2751 19.2806 12.5824 17.1553L16.1711 11.3201C17.1977 9.65151 17.7112 8.8165 17.3381 8.27932C16.9651 7.74214 16.0033 7.93154 14.0812 8.31058L7.35996 9.63478C4.9119 10.1173 3.68705 10.3591 3.59662 11.0757C3.50619 11.7923 4.63316 12.3282 6.88662 13.4028Z" stroke="black"/>
</svg>
