<svg width="40" height="41" viewBox="0 0 40 41" fill="none" xmlns="http://www.w3.org/2000/svg">
<rect y="0.5" width="40" height="40" rx="20" fill="white"/>
<path d="M13.1584 19.991C13.0849 21.387 13.1694 22.873 11.9221 23.8084C11.3416 24.2438 11 24.927 11 25.6527C11 26.6508 11.7818 27.5 12.8 27.5H27.2C28.2182 27.5 29 26.6508 29 25.6527C29 24.927 28.6584 24.2438 28.0779 23.8084C26.8306 22.873 26.9151 21.387 26.8416 19.991C26.6501 16.3522 23.6438 13.5 20 13.5C16.3562 13.5 13.3499 16.3522 13.1584 19.991Z" stroke="black" stroke-width="1.5" stroke-linecap="round" stroke-linejoin="round"/>
<path d="M18.5 11.625C18.5 12.4534 19.1716 13.5 20 13.5C20.8284 13.5 21.5 12.4534 21.5 11.625C21.5 10.7966 20.8284 10.5 20 10.5C19.1716 10.5 18.5 10.7966 18.5 11.625Z" stroke="black" stroke-width="1.5"/>
<path d="M23 27.5C23 29.1569 21.6569 30.5 20 30.5C18.3431 30.5 17 29.1569 17 27.5" stroke="black" stroke-width="1.5" stroke-linecap="round" stroke-linejoin="round"/>
</svg>
