<svg width="191" height="32" viewBox="0 0 191 32" fill="none" xmlns="http://www.w3.org/2000/svg">
<path d="M0.414773 31.5V9.68182H6.46591V31.5H0.414773ZM3.45455 6.86932C2.55492 6.86932 1.78314 6.57102 1.1392 5.97443C0.504735 5.36837 0.1875 4.64394 0.1875 3.80114C0.1875 2.9678 0.504735 2.25284 1.1392 1.65625C1.78314 1.05019 2.55492 0.747158 3.45455 0.747158C4.35417 0.747158 5.12121 1.05019 5.75568 1.65625C6.39962 2.25284 6.72159 2.9678 6.72159 3.80114C6.72159 4.64394 6.39962 5.36837 5.75568 5.97443C5.12121 6.57102 4.35417 6.86932 3.45455 6.86932ZM21.1712 31.9261C18.9363 31.9261 17.014 31.4527 15.4041 30.5057C13.8037 29.5492 12.5727 28.2235 11.7109 26.5284C10.8587 24.8333 10.4325 22.8826 10.4325 20.6761C10.4325 18.4413 10.8634 16.4811 11.7251 14.7955C12.5964 13.1004 13.8321 11.7794 15.4325 10.8324C17.0329 9.87595 18.9363 9.39773 21.1428 9.39773C23.0462 9.39773 24.7128 9.74337 26.1428 10.4347C27.5727 11.1259 28.7043 12.0966 29.5376 13.3466C30.371 14.5966 30.8303 16.0644 30.9155 17.75H25.2053C25.0443 16.661 24.6181 15.785 23.9268 15.1222C23.245 14.4498 22.3501 14.1136 21.2422 14.1136C20.3047 14.1136 19.4856 14.3693 18.7848 14.8807C18.0935 15.3826 17.5537 16.1165 17.1655 17.0824C16.7772 18.0483 16.5831 19.2178 16.5831 20.5909C16.5831 21.983 16.7725 23.1667 17.1513 24.142C17.5395 25.1174 18.084 25.8608 18.7848 26.3722C19.4856 26.8835 20.3047 27.1392 21.2422 27.1392C21.9335 27.1392 22.5537 26.9972 23.103 26.7131C23.6617 26.429 24.121 26.017 24.4808 25.4773C24.8501 24.928 25.0916 24.2699 25.2053 23.5028H30.9155C30.8208 25.1695 30.3662 26.6373 29.5518 27.9062C28.7469 29.1657 27.6342 30.1506 26.2138 30.8608C24.7933 31.571 23.1125 31.9261 21.1712 31.9261ZM41.0114 31.9119C39.6193 31.9119 38.3788 31.6705 37.2898 31.1875C36.2008 30.6951 35.339 29.9706 34.7045 29.0142C34.0795 28.0483 33.767 26.8456 33.767 25.4062C33.767 24.1941 33.9896 23.1761 34.4347 22.3523C34.8797 21.5284 35.4858 20.8655 36.2528 20.3636C37.0199 19.8617 37.8911 19.483 38.8665 19.2273C39.8513 18.9716 40.8835 18.7917 41.9631 18.6875C43.232 18.5549 44.2547 18.4318 45.0312 18.3182C45.8078 18.1951 46.3712 18.0152 46.7216 17.7784C47.072 17.5417 47.2472 17.1913 47.2472 16.7273V16.642C47.2472 15.7424 46.9631 15.0464 46.3949 14.554C45.8362 14.0616 45.0407 13.8153 44.0085 13.8153C42.9195 13.8153 42.053 14.0568 41.4091 14.5398C40.7652 15.0133 40.339 15.6098 40.1307 16.3295L34.5341 15.875C34.8182 14.5492 35.3769 13.4034 36.2102 12.4375C37.0436 11.4621 38.1184 10.714 39.4347 10.1932C40.7604 9.66288 42.2945 9.39773 44.0369 9.39773C45.2491 9.39773 46.4091 9.53977 47.517 9.82386C48.6345 10.108 49.6241 10.5483 50.4858 11.1449C51.357 11.7415 52.0436 12.5085 52.5455 13.446C53.0473 14.3741 53.2983 15.4867 53.2983 16.7841V31.5H47.5597V28.4744H47.3892C47.0388 29.1562 46.5701 29.7576 45.983 30.2784C45.3958 30.7898 44.6903 31.1922 43.8665 31.4858C43.0426 31.7699 42.0909 31.9119 41.0114 31.9119ZM42.7443 27.7358C43.6345 27.7358 44.4205 27.5606 45.1023 27.2102C45.7841 26.8504 46.3191 26.3674 46.7074 25.7614C47.0956 25.1553 47.2898 24.4687 47.2898 23.7017V21.3864C47.1004 21.5095 46.84 21.6231 46.5085 21.7273C46.1866 21.822 45.822 21.9119 45.4148 21.9972C45.0076 22.0729 44.6004 22.1439 44.1932 22.2102C43.786 22.267 43.4167 22.3191 43.0852 22.3665C42.375 22.4706 41.7547 22.6364 41.2244 22.8636C40.6941 23.0909 40.2822 23.3987 39.9886 23.7869C39.6951 24.1657 39.5483 24.6392 39.5483 25.2074C39.5483 26.0312 39.8466 26.661 40.4432 27.0966C41.0492 27.5227 41.8163 27.7358 42.7443 27.7358ZM64.044 18.8864V31.5H57.9929V9.68182H63.7599V13.5312H64.0156C64.4986 12.2623 65.3082 11.2585 66.4446 10.5199C67.581 9.77178 68.9588 9.39773 70.5781 9.39773C72.0933 9.39773 73.4143 9.72917 74.5412 10.392C75.6681 11.0549 76.544 12.0019 77.169 13.233C77.794 14.4545 78.1065 15.9129 78.1065 17.608V31.5H72.0554V18.6875C72.0649 17.3523 71.724 16.3106 71.0327 15.5625C70.3414 14.8049 69.3897 14.4261 68.1776 14.4261C67.3632 14.4261 66.6435 14.6013 66.0185 14.9517C65.4029 15.3021 64.92 15.8134 64.5696 16.4858C64.2287 17.1487 64.0535 17.9489 64.044 18.8864ZM87.1797 31.5L81.2422 9.68182H87.3643L90.745 24.3409H90.9439L94.4666 9.68182H100.475L104.055 24.2557H104.239L107.563 9.68182H113.671L107.748 31.5H101.342L97.5916 17.7784H97.3217L93.5717 31.5H87.1797ZM116.899 31.5V9.68182H122.766V13.4886H122.993C123.391 12.1345 124.058 11.1117 124.996 10.4205C125.933 9.7197 127.013 9.36932 128.234 9.36932C128.537 9.36932 128.864 9.38826 129.214 9.42614C129.565 9.46402 129.873 9.5161 130.138 9.58239V14.9517C129.854 14.8665 129.461 14.7907 128.959 14.7244C128.457 14.6581 127.998 14.625 127.581 14.625C126.691 14.625 125.895 14.8191 125.195 15.2074C124.503 15.5862 123.954 16.1165 123.547 16.7983C123.149 17.4801 122.95 18.2661 122.95 19.1562V31.5H116.899ZM133.266 31.5V9.68182H139.317V31.5H133.266ZM136.306 6.86932C135.406 6.86932 134.635 6.57102 133.991 5.97443C133.356 5.36837 133.039 4.64394 133.039 3.80114C133.039 2.9678 133.356 2.25284 133.991 1.65625C134.635 1.05019 135.406 0.747158 136.306 0.747158C137.206 0.747158 137.973 1.05019 138.607 1.65625C139.251 2.25284 139.573 2.9678 139.573 3.80114C139.573 4.64394 139.251 5.36837 138.607 5.97443C137.973 6.57102 137.206 6.86932 136.306 6.86932ZM155.77 9.68182V14.2273H142.631V9.68182H155.77ZM145.614 4.45455H151.665V24.7955C151.665 25.3542 151.75 25.7898 151.92 26.1023C152.091 26.4053 152.328 26.6184 152.631 26.7415C152.943 26.8646 153.303 26.9261 153.71 26.9261C153.994 26.9261 154.278 26.9025 154.562 26.8551C154.847 26.7983 155.064 26.7557 155.216 26.7273L156.168 31.2301C155.865 31.3248 155.438 31.4337 154.889 31.5568C154.34 31.6894 153.672 31.7699 152.886 31.7983C151.428 31.8551 150.15 31.661 149.051 31.2159C147.962 30.7708 147.115 30.0795 146.509 29.142C145.902 28.2045 145.604 27.0208 145.614 25.5909V4.45455ZM169.42 31.9261C167.176 31.9261 165.244 31.4716 163.625 30.5625C162.015 29.6439 160.775 28.3466 159.903 26.6705C159.032 24.9848 158.597 22.9915 158.597 20.6903C158.597 18.446 159.032 16.4763 159.903 14.7812C160.775 13.0862 162.001 11.7652 163.582 10.8182C165.173 9.87121 167.039 9.39773 169.179 9.39773C170.618 9.39773 171.958 9.62973 173.199 10.0938C174.449 10.5483 175.538 11.2348 176.466 12.1534C177.403 13.072 178.133 14.2273 178.653 15.6193C179.174 17.0019 179.435 18.6212 179.435 20.4773V22.1392H161.011V18.3892H173.739C173.739 17.518 173.549 16.7462 173.17 16.0739C172.792 15.4015 172.266 14.8759 171.594 14.4972C170.931 14.1089 170.159 13.9148 169.278 13.9148C168.36 13.9148 167.545 14.1278 166.835 14.554C166.134 14.9706 165.585 15.5341 165.188 16.2443C164.79 16.9451 164.586 17.7263 164.577 18.5881V22.1534C164.577 23.233 164.776 24.1657 165.173 24.9517C165.58 25.7377 166.153 26.3438 166.892 26.7699C167.631 27.196 168.507 27.4091 169.52 27.4091C170.192 27.4091 170.808 27.3144 171.366 27.125C171.925 26.9356 172.403 26.6515 172.801 26.2727C173.199 25.8939 173.502 25.4299 173.71 24.8807L179.307 25.25C179.023 26.5947 178.44 27.7689 177.56 28.7727C176.688 29.767 175.562 30.5436 174.179 31.1023C172.806 31.6515 171.22 31.9261 169.42 31.9261ZM186.92 31.8693C185.983 31.8693 185.178 31.5379 184.506 30.875C183.843 30.2027 183.511 29.3977 183.511 28.4602C183.511 27.5322 183.843 26.7367 184.506 26.0739C185.178 25.411 185.983 25.0795 186.92 25.0795C187.83 25.0795 188.625 25.411 189.307 26.0739C189.989 26.7367 190.33 27.5322 190.33 28.4602C190.33 29.0852 190.169 29.6581 189.847 30.179C189.534 30.6903 189.122 31.1023 188.611 31.4148C188.099 31.7178 187.536 31.8693 186.92 31.8693Z" fill="white"/>
</svg>
